<?xml version="1.0" encoding="UTF-8"?>
<svg id="Camada_1" xmlns="http://www.w3.org/2000/svg" viewBox="0 0 1920 1080">
  <defs>
    <style>
      .cls-1 {
        fill: #0d30a4;
      }

      .cls-2 {
        fill: #5ec072;
      }

      .cls-3 {
        fill: #090909;
      }
    </style>
  </defs>
  <path class="cls-1" d="M365.88,837.07c-77.41,0-140.32-62.91-140.32-139.9s63.12-139.9,140.32-139.9,140.32,62.91,140.32,139.9-63.12,139.9-140.32,139.9ZM365.88,623.17c-40.95,0-74.43,33.27-74.43,74s33.48,74,74.43,74,74.43-33.27,74.43-74-33.48-74-74.43-74Z"/>
  <path class="cls-1" d="M365.88,522.73c-77.41,0-140.32-62.91-140.32-139.9s63.12-139.9,140.32-139.9,140.32,62.91,140.32,139.9-63.12,139.9-140.32,139.9ZM365.88,309.04c-40.95,0-74.43,33.27-74.43,74s33.48,74,74.43,74,74.43-33.27,74.43-74-33.48-74-74.43-74Z"/>
  <path class="cls-3" d="M903.58,664.11v-263.37h66.32v74.88c7.27-2.78,15.83-4.71,23.96-4.71,38.51,0,75.52,23.11,75.52,71.89v64.4c0,55.2-38.51,73.81-82.8,73.81s-58.83-7.27-83.22-16.69h0l.21-.21ZM1004.14,611.7v-67.82c0-13.69-9.84-18.61-20.75-18.61s-10.06,2.35-13.69,4.06v98.2c4.06,1.5,8.13,2.35,12.84,2.35,11.34,0,21.39-4.92,21.39-17.97h0l.21-.21Z"/>
  <path class="cls-3" d="M1144.98,599.07v7.27c0,14.98,13.69,23.11,28.45,23.11s22.68-4.07,30.81-13.69l36.58,29.74c-20.75,28.88-49.21,35.09-72.1,35.09-41.29,0-83.87-24.18-83.87-74.24v-63.33c0-50.28,41.72-72.53,83.22-72.53s78.73,23.53,78.73,73.81v54.77h-102.05.21ZM1145.84,542.59v13.26h44.07v-14.55c0-11.77-10.91-17.54-21.82-17.54s-22.25,6.2-22.25,18.61h0v.21Z"/>
  <path class="cls-2" d="M638.86,679.9c-77.41,0-140.32-62.91-140.32-139.9s63.12-139.9,140.32-139.9,140.32,62.91,140.32,139.9-63.12,139.9-140.32,139.9h0ZM638.86,466c-40.95,0-74.43,33.27-74.43,74s33.48,74,74.43,74,74.43-33.27,74.43-74-33.48-74-74.43-74h0Z"/>
  <g>
    <path class="cls-3" d="M1394.9,550.83c0-55.95,36.36-80.12,82.52-80.12s16.98.87,34.62,5.01v58.35c-6.31-2.83-13.06-4.35-19.81-4.35-15.68,0-30.26,8.27-30.26,24.38v126.28h-67.06v-129.33h0v-.22Z"/>
    <path class="cls-3" d="M1512.03,475.6v-1.99c0-1.62-1.32-2.94-2.94-2.93l-26.55.09,28.57,5.59c.48.09.92-.27.92-.76Z"/>
  </g>
  <g>
    <path class="cls-3" d="M1262.29,551.07c0-55.95,36.36-80.12,82.52-80.12s16.98.87,34.62,5.01v58.35c-6.31-2.83-13.06-4.35-19.81-4.35-15.68,0-30.26,8.27-30.26,24.38v126.28h-67.06v-129.33h0v-.22Z"/>
    <path class="cls-3" d="M1379.43,475.85v-1.99c0-1.62-1.32-2.94-2.94-2.93l-26.55.09,28.57,5.59c.48.09.92-.27.92-.76Z"/>
  </g>
  <g>
    <path class="cls-3" d="M1694.44,470.92v199.89c0,61.35-34.91,92.14-84.99,92.14s-49.86-7.15-73.93-27.53l26.45-41.19c11.92,7.15,26.02,12.36,37.51,12.36,21.46,0,31.22-13.01,31.22-31.65-8.24,3.25-19.3,4.77-30.79,4.77-36.21,0-72.41-20.6-72.41-68.73v-139.84h64.61v135.72c0,13.01,10.19,18.65,21.03,18.65s11.49-1.52,15.61-4.34v-149.81h65.69v-.43Z"/>
    <path class="cls-3" d="M1544.9,720.82l-14.33,22.41c7.12,4.51,10.84,6.87,16.53,9.74,43.11,21.77,98.31,6.72,105.74.02"/>
  </g>
</svg>